<svg xmlns="http://www.w3.org/2000/svg" viewBox="0 0 592 862" font-family="Helvetica, Arial, sans-serif">
<rect width="592" height="862" fill="#f7f3ec" rx="10"/>
<clipPath id="maparea"><rect x="14" y="58" width="564" height="780" rx="6"/></clipPath>
<g clip-path="url(#maparea)">
<path d="M322.9,475.5L327.9,475.8L332.6,471.6L337.3,468.2L342.3,465.3L349.9,458.8L351.9,457.9L356.9,456.6L359.0,455.1L361.4,454.8L359.3,458.6L356.5,459.9L356.1,461.3L357.6,463.5L355.3,466.6L355.4,470.5L352.6,475.1L356.9,473.2L358.4,470.2L357.6,468.5L359.5,465.2L362.4,463.6L361.2,461.1L361.3,459.1L364.8,459.8L366.6,459.7L368.0,458.9L370.5,458.6L371.0,460.9L374.5,460.6L373.2,463.4L370.6,466.7L370.0,468.7L365.8,471.9L363.0,473.3L367.3,473.7L373.6,469.3L377.4,465.4L377.3,470.3L374.2,474.6L371.6,477.4L368.7,478.2L365.8,480.5L364.3,484.1L364.5,486.5L365.3,488.4L368.3,491.7L365.0,497.9L368.7,497.2L370.8,498.3L373.6,501.9L371.9,506.1L370.7,508.2L363.4,517.0L360.2,521.4L356.5,524.3L356.5,529.0L354.4,532.4L343.5,544.0L341.6,546.5L333.0,565.0L327.5,572.8L324.4,575.5L321.1,577.6L313.1,581.3L309.6,585.5L305.7,589.0L301.6,589.8L301.7,591.4L304.3,592.2L306.4,594.5L304.9,597.1L301.9,598.7L298.9,599.2L297.4,600.8L304.6,599.7L306.6,601.0L307.0,603.8L307.8,606.4L309.5,609.8L315.6,611.9L321.1,613.0L322.2,614.5L323.0,619.9L322.0,622.6L320.8,624.3L318.9,625.0L314.5,625.3L310.0,624.1L307.0,620.8L298.6,621.9L296.3,622.6L295.2,622.0L299.8,618.5L297.4,616.6L295.4,615.9L293.2,617.0L291.7,618.8L291.2,621.8L289.7,623.5L287.4,624.0L284.1,621.5L280.8,618.0L276.0,614.4L276.8,616.6L280.5,622.0L282.3,625.6L278.0,628.4L273.5,630.6L269.7,631.9L266.2,634.0L262.0,637.1L259.7,638.3L253.6,638.3L250.3,639.3L249.2,643.5L246.9,646.2L241.5,646.7L243.5,647.5L244.7,648.8L241.1,661.4L240.3,666.6L239.7,675.6L237.4,683.9L231.0,683.8L232.1,685.3L236.9,687.6L236.0,691.1L230.7,697.6L228.5,701.3L226.3,710.3L223.1,718.7L218.1,728.1L218.0,729.8L219.8,732.2L221.9,734.3L222.0,737.3L221.4,738.8L219.0,739.2L216.9,740.3L205.9,742.9L202.2,745.8L199.2,751.0L195.7,755.5L184.1,765.4L177.3,773.8L175.9,776.1L174.1,777.9L159.1,781.8L148.5,782.4L142.8,781.4L137.2,779.4L134.1,778.7L128.2,779.9L125.7,781.3L121.1,780.0L117.4,781.0L116.3,780.0L115.0,777.5L115.7,774.3L114.7,771.9L112.4,770.3L110.8,768.4L109.0,767.0L104.2,766.5L96.5,767.3L94.0,767.2L88.8,759.3L87.0,757.3L80.8,754.8L78.7,755.1L75.4,759.4L73.4,760.1L61.8,760.5L50.1,759.2L45.8,757.6L44.9,753.9L53.8,743.8L51.2,745.1L45.7,749.3L42.2,748.6L45.6,744.1L45.9,742.1L45.2,739.9L40.6,743.7L35.4,744.2L34.7,740.7L35.2,736.6L36.3,735.4L50.3,733.3L55.4,731.9L57.6,729.7L49.2,729.0L48.6,725.9L49.8,723.5L57.0,719.4L51.7,720.4L45.9,720.1L46.3,715.7L47.8,712.4L53.9,712.3L52.0,710.0L51.7,706.7L53.4,706.5L59.7,710.9L64.2,712.5L62.3,709.2L62.5,707.1L63.7,706.2L67.4,705.5L66.4,705.0L62.9,704.1L58.8,701.6L58.4,699.0L58.5,696.0L63.0,691.8L65.6,694.3L68.7,693.6L66.3,691.6L64.9,688.7L65.9,686.8L75.2,679.0L77.7,686.5L78.2,684.0L78.3,681.7L77.2,679.6L77.4,677.5L78.5,675.8L82.5,674.0L87.7,668.3L91.6,665.7L94.7,667.4L96.9,669.7L96.6,667.4L95.0,665.5L94.6,660.2L101.6,652.1L109.3,644.4L116.7,636.2L120.7,633.3L129.1,629.9L134.5,631.3L135.8,631.1L143.8,625.2L147.1,623.7L150.1,625.8L152.0,626.5L150.1,621.2L151.6,618.7L158.3,614.4L166.6,609.9L173.0,608.1L177.6,605.1L180.5,605.0L180.0,602.7L180.5,600.5L182.9,600.7L183.7,599.8L181.5,598.6L188.4,594.2L192.2,589.4L194.1,588.4L195.9,586.9L198.1,583.6L200.7,582.5L203.1,583.0L204.9,584.6L203.9,581.9L200.8,580.3L204.1,578.0L207.6,576.3L210.9,577.5L214.2,579.4L210.9,576.5L210.4,574.7L214.4,572.6L216.6,572.0L219.6,575.9L219.2,572.8L219.9,570.0L224.1,565.5L229.8,558.0L231.6,560.6L231.9,563.8L231.6,567.6L232.7,566.3L233.1,562.8L232.3,556.7L239.3,545.5L240.7,544.3L242.2,543.5L244.7,543.2L243.9,541.5L242.0,539.9L244.0,534.2L245.1,527.7L246.7,521.4L249.3,515.3L252.2,505.1L254.4,502.9L260.3,502.2L262.8,500.7L267.1,497.0L272.2,490.4L275.0,485.0L278.5,471.0L280.5,456.4L286.3,445.6L294.8,437.8L302.3,431.8L305.4,430.6L310.5,430.2L315.5,431.9L306.3,433.3L305.4,436.8L305.1,440.4L306.1,443.6L307.8,446.5L312.2,449.2L317.4,450.8L319.7,456.8L320.2,464.0L320.9,470.1L322.9,475.5Z" fill="#dbe8d3" stroke="#94aa87" stroke-width="1.2"/>
<path d="M357.6,451.7L351.8,455.0L352.0,452.7L353.2,447.6L355.8,445.1L357.1,444.9L359.8,443.0L359.5,447.2L357.6,451.7Z" fill="#dbe8d3" stroke="#94aa87" stroke-width="1.2"/>
<path d="M46.4,726.5L46.2,729.3L45.7,730.7L44.2,730.7L41.9,730.4L39.7,729.1L38.3,729.5L37.1,729.0L38.6,725.8L43.8,724.2L45.8,725.5L46.4,726.5Z" fill="#dbe8d3" stroke="#94aa87" stroke-width="1.2"/>
<path d="M56.5,699.2L58.4,706.1L54.4,704.8L52.8,702.7L55.8,699.2L56.5,699.2Z" fill="#dbe8d3" stroke="#94aa87" stroke-width="1.2"/>
<path d="M107.1,795.7L107.1,798.0L102.6,797.2L102.7,799.7L106.3,801.1L107.6,802.9L111.3,802.4L112.1,805.1L111.3,807.6L108.8,809.4L101.5,810.3L96.7,813.9L92.6,813.4L91.5,813.7L86.8,817.5L81.5,818.7L80.1,818.4L80.8,815.0L84.7,811.7L84.8,808.6L85.8,806.1L89.6,804.4L89.6,801.1L92.2,798.2L90.6,792.0L91.5,786.4L98.9,786.1L107.1,795.7Z" fill="#dbe8d3" stroke="#94aa87" stroke-width="1.2"/>
<path d="M428.3,188.7L428.7,191.9L425.3,190.7L424.0,188.4L420.3,185.9L419.8,185.2L419.4,180.4L421.3,178.1L421.7,177.2L422.5,176.8L424.0,179.3L427.0,182.9L428.3,188.7Z" fill="#dbe8d3" stroke="#94aa87" stroke-width="1.2"/>
<path d="M329.6,111.6L330.3,114.2L332.7,112.4L334.5,109.4L337.4,106.4L337.0,111.3L338.4,112.3L348.0,115.7L350.0,118.5L352.0,119.3L353.2,117.7L354.6,116.9L358.0,118.6L365.8,123.5L366.5,125.2L366.1,127.8L366.5,130.4L367.5,132.6L370.2,133.1L373.6,129.9L375.2,129.5L377.5,134.0L378.4,136.5L378.0,136.4L379.5,138.9L381.5,141.4L384.9,148.7L384.4,151.3L383.4,153.6L386.5,160.4L384.5,160.9L378.3,159.7L378.5,161.1L382.1,166.1L385.2,173.1L387.6,177.3L396.2,190.5L394.9,195.1L395.1,198.2L394.0,200.9L396.9,207.8L395.1,210.0L393.9,217.1L392.5,218.3L392.7,221.0L396.1,221.6L398.2,222.7L400.0,224.9L401.1,222.3L402.7,221.6L406.8,225.0L415.4,228.4L417.7,229.7L418.9,232.4L419.8,239.0L421.5,241.9L424.8,242.5L428.3,241.6L429.4,239.2L428.7,232.7L426.2,222.4L426.1,219.0L426.5,215.6L425.9,212.3L424.6,209.1L423.3,206.7L421.5,204.6L422.1,201.4L424.8,200.0L426.3,202.7L427.7,205.9L434.3,215.5L438.3,214.9L438.6,218.9L441.3,222.9L442.8,227.6L444.7,241.8L447.7,255.1L453.1,260.9L453.8,263.7L450.5,262.3L449.5,263.1L449.8,264.5L452.9,267.1L456.5,268.3L458.7,268.1L460.8,269.1L474.8,277.7L481.6,281.1L498.6,286.6L503.5,287.0L506.2,286.9L511.3,285.0L515.8,281.5L519.7,276.4L523.2,270.5L526.9,267.7L531.1,265.4L533.2,263.4L535.4,261.9L546.8,262.6L550.7,265.5L555.7,267.9L558.3,269.8L557.4,273.5L554.4,279.1L552.1,285.1L550.1,298.9L548.7,312.9L546.6,319.0L542.8,323.8L538.7,327.2L534.0,328.8L532.0,336.7L531.1,346.0L531.4,348.3L532.9,350.2L533.5,352.9L531.0,358.5L529.6,357.7L527.6,353.1L525.7,351.1L520.0,349.7L514.3,349.0L509.3,349.4L504.5,351.4L497.2,355.4L494.9,357.5L492.9,360.1L489.6,365.8L488.8,372.9L488.9,376.6L490.1,379.5L496.3,383.4L490.2,397.0L484.7,411.2L481.6,415.2L478.1,418.9L474.7,427.5L468.8,434.8L464.9,440.4L461.8,446.2L459.1,452.4L453.3,461.1L450.8,466.9L447.4,471.7L441.2,477.8L434.6,483.1L424.2,490.3L421.3,492.7L418.2,494.5L414.4,492.4L413.6,490.2L412.8,485.2L411.9,483.4L407.1,481.9L400.7,484.3L399.6,483.8L399.3,482.7L399.3,475.4L400.4,473.4L398.9,472.3L397.4,472.7L396.9,474.5L397.8,476.1L394.2,478.1L390.4,478.2L389.2,477.4L388.9,476.1L389.8,473.9L391.1,472.0L398.1,462.8L405.5,450.7L411.8,437.8L413.4,431.1L415.8,418.7L413.9,413.6L411.5,408.7L405.1,399.4L396.7,394.1L391.2,393.4L386.0,391.4L381.1,386.9L376.6,381.7L367.8,377.4L358.5,374.0L353.2,369.2L351.9,366.3L351.1,363.0L351.2,360.0L351.8,356.9L352.9,354.5L354.6,352.8L364.4,346.6L374.9,343.1L376.8,343.2L378.6,342.6L381.2,340.5L385.9,335.7L387.3,332.4L388.2,322.1L389.7,312.0L392.4,300.3L396.5,293.1L397.8,288.7L396.1,281.4L397.7,278.7L399.5,277.1L401.6,276.2L398.1,269.4L393.9,259.0L393.0,255.8L393.6,252.6L394.7,249.5L392.0,248.7L390.5,245.7L386.8,235.7L387.8,234.1L390.0,235.2L393.2,242.4L393.7,238.7L396.2,236.4L398.8,235.2L401.7,234.9L395.3,226.8L393.1,227.2L390.3,228.4L387.4,229.2L384.6,228.5L382.0,226.7L380.6,223.3L379.0,216.8L377.9,214.3L369.5,200.9L372.0,200.5L378.8,207.2L380.1,205.1L381.1,202.0L380.7,198.6L379.1,196.0L376.7,194.3L376.7,191.2L378.5,188.4L378.4,186.5L374.5,182.5L373.0,182.1L372.3,183.9L373.4,186.7L372.3,187.0L362.9,179.7L360.0,173.9L357.6,167.5L357.4,170.1L357.7,173.7L361.5,181.1L367.5,189.3L368.6,191.5L367.7,194.3L365.6,195.1L363.7,193.3L360.9,186.3L358.9,182.8L335.8,146.5L338.8,141.7L343.3,137.6L344.4,135.8L345.1,133.7L343.2,133.3L341.4,134.3L339.4,136.1L337.6,138.2L335.3,142.9L334.3,144.0L331.5,140.8L330.5,138.8L330.6,136.4L329.8,134.8L327.8,134.4L324.9,129.6L323.0,127.1L326.1,122.4L326.2,116.3L323.0,109.8L319.2,103.9L311.9,94.3L305.1,84.1L312.4,82.8L319.8,82.6L316.3,88.7L317.9,92.2L320.3,95.2L325.3,104.3L325.8,106.9L328.4,109.6L329.6,111.6Z" fill="#dbe8d3" stroke="#94aa87" stroke-width="1.2"/>
</g>
<text x="18" y="38" font-size="19" font-weight="bold" fill="#3d3929">New Zealand — regionene i biblioteket</text>
<circle cx="365.2" cy="131.4" r="11" fill="#bf4d3f" stroke="#fff" stroke-width="2"/>
<text x="365.2" y="135.9" font-size="12.5" font-weight="bold" fill="#fff" text-anchor="middle">1</text>
<circle cx="394.3" cy="221.5" r="11" fill="#bf4d3f" stroke="#fff" stroke-width="2"/>
<text x="394.3" y="226.0" font-size="12.5" font-weight="bold" fill="#fff" text-anchor="middle">2</text>
<circle cx="430.8" cy="224.3" r="11" fill="#bf4d3f" stroke="#fff" stroke-width="2"/>
<text x="430.8" y="228.8" font-size="12.5" font-weight="bold" fill="#fff" text-anchor="middle">3</text>
<circle cx="459.0" cy="295.4" r="11" fill="#bf4d3f" stroke="#fff" stroke-width="2"/>
<text x="459.0" y="299.9" font-size="12.5" font-weight="bold" fill="#fff" text-anchor="middle">4</text>
<circle cx="488.1" cy="372.9" r="11" fill="#bf4d3f" stroke="#fff" stroke-width="2"/>
<text x="488.1" y="377.4" font-size="12.5" font-weight="bold" fill="#fff" text-anchor="middle">5</text>
<circle cx="395.2" cy="476.1" r="11" fill="#bf4d3f" stroke="#fff" stroke-width="2"/>
<text x="395.2" y="480.6" font-size="12.5" font-weight="bold" fill="#fff" text-anchor="middle">6</text>
<circle cx="359.6" cy="488.7" r="11" fill="#bf4d3f" stroke="#fff" stroke-width="2"/>
<text x="359.6" y="493.2" font-size="12.5" font-weight="bold" fill="#fff" text-anchor="middle">7</text>
<circle cx="347.4" cy="539.8" r="11" fill="#bf4d3f" stroke="#fff" stroke-width="2"/>
<text x="347.4" y="544.3" font-size="12.5" font-weight="bold" fill="#fff" text-anchor="middle">8</text>
<circle cx="195.5" cy="596.5" r="11" fill="#bf4d3f" stroke="#fff" stroke-width="2"/>
<text x="195.5" y="601.0" font-size="12.5" font-weight="bold" fill="#fff" text-anchor="middle">9</text>
<circle cx="208.5" cy="631.5" r="11" fill="#bf4d3f" stroke="#fff" stroke-width="2"/>
<text x="208.5" y="636.0" font-size="12.5" font-weight="bold" fill="#fff" text-anchor="middle">10</text>
<circle cx="129.5" cy="690.6" r="11" fill="#bf4d3f" stroke="#fff" stroke-width="2"/>
<text x="129.5" y="695.1" font-size="12.5" font-weight="bold" fill="#fff" text-anchor="middle">11</text>
<circle cx="88.7" cy="712.4" r="11" fill="#bf4d3f" stroke="#fff" stroke-width="2"/>
<text x="88.7" y="716.9" font-size="12.5" font-weight="bold" fill="#fff" text-anchor="middle">12</text>
<circle cx="157.3" cy="774.9" r="11" fill="#bf4d3f" stroke="#fff" stroke-width="2"/>
<text x="157.3" y="779.4" font-size="12.5" font-weight="bold" fill="#fff" text-anchor="middle">13</text>
</svg>